<svg xmlns="http://www.w3.org/2000/svg" version="1.1" xmlns:xlink="http://www.w3.org/1999/xlink" xmlns:svgjs="http://svgjs.dev/svgjs" width="24" height="24"><svg xmlns="http://www.w3.org/2000/svg" width="24" height="24" viewBox="0 0 24 24" fill="none" stroke="currentColor" stroke-width="2" stroke-linecap="round" stroke-linejoin="round" class="lucide lucide-snowflake"><path d="m10 20-1.25-2.5L6 18"></path><path d="M10 4 8.75 6.5 6 6"></path><path d="m14 20 1.25-2.5L18 18"></path><path d="m14 4 1.25 2.5L18 6"></path><path d="m17 21-3-6h-4"></path><path d="m17 3-3 6 1.5 3"></path><path d="M2 12h6.5L10 9"></path><path d="m20 10-1.5 2 1.5 2"></path><path d="M22 12h-6.5L14 15"></path><path d="m4 10 1.5 2L4 14"></path><path d="m7 21 3-6-1.5-3"></path><path d="m7 3 3 6h4"></path></svg><style>@media (prefers-color-scheme: light) { :root { filter: none; } }
@media (prefers-color-scheme: dark) { :root { filter: contrast(0.3846153846153846) brightness(4.5); } }
</style></svg>