<svg width="25" height="24" fill="none" xmlns="http://www.w3.org/2000/svg"><path d="M17.75 3H7.25A3.75 3.75 0 0 0 3.5 6.75V18a3.75 3.75 0 0 0 3.75 3.75h8.25a.75.75 0 1 0 0-1.5H7.25A2.25 2.25 0 0 1 5 18v-.75h12.75a3.75 3.75 0 0 0 3.75-3.75V6.75A3.75 3.75 0 0 0 17.75 3ZM20 13.5a2.25 2.25 0 0 1-2.25 2.25H5v-9A2.25 2.25 0 0 1 7.25 4.5h10.5A2.25 2.25 0 0 1 20 6.75v6.75Zm-2.25-3.75v3a.75.75 0 1 1-1.5 0v-3a1.5 1.5 0 1 0-3 0v3a.75.75 0 1 1-1.5 0v-3a1.5 1.5 0 1 0-3 0v3a.75.75 0 1 1-1.5 0v-3a3 3 0 0 1 5.25-1.98 3 3 0 0 1 5.25 1.98Z" fill="currentColor"/></svg>
