<svg width="25" height="24" fill="none" xmlns="http://www.w3.org/2000/svg"><path d="M20 3H5a1.5 1.5 0 0 0-1.5 1.5V18A1.5 1.5 0 0 0 5 19.5h1.5v3a.75.75 0 0 0 1.23.577l4.292-3.577h3.956a1.5 1.5 0 0 0 .961-.348l4.021-3.351a1.494 1.494 0 0 0 .54-1.153V4.5A1.5 1.5 0 0 0 20 3Zm0 11.648L15.978 18H11.75a.75.75 0 0 0-.48.173L8 20.9V18.75a.75.75 0 0 0-.75-.75H5V4.5h15v10.148Zm-4.5-1.898v-4.5a.75.75 0 1 1 1.5 0v4.5a.75.75 0 1 1-1.5 0Zm-4.5 0v-4.5a.75.75 0 1 1 1.5 0v4.5a.75.75 0 1 1-1.5 0Z" fill="currentColor"/></svg>
