<svg width="25" height="24" fill="none" xmlns="http://www.w3.org/2000/svg"><path d="m15.916 11.376-4.5-3A.75.75 0 0 0 10.25 9v6a.75.75 0 0 0 1.166.624l4.5-3a.75.75 0 0 0 0-1.248Zm-4.166 2.222v-3.192L14.148 12l-2.398 1.598Zm10.718-7.08A2.25 2.25 0 0 0 21.11 4.98c-3.214-1.241-8.329-1.23-8.61-1.23-.281 0-5.396-.011-8.61 1.23a2.25 2.25 0 0 0-1.358 1.537C2.289 7.454 2 9.163 2 12c0 2.837.289 4.547.532 5.483A2.25 2.25 0 0 0 3.89 19.02c3.079 1.188 7.897 1.229 8.548 1.229h.124c.65 0 5.472-.041 8.548-1.23a2.25 2.25 0 0 0 1.358-1.537c.243-.938.532-2.646.532-5.483 0-2.837-.289-4.547-.532-5.482ZM21.016 17.11a.75.75 0 0 1-.447.515c-2.967 1.146-8.014 1.125-8.062 1.125H12.5c-.05 0-5.093.019-8.063-1.125a.75.75 0 0 1-.447-.515c-.228-.856-.49-2.433-.49-5.111s.263-4.255.484-5.107a.75.75 0 0 1 .447-.518C7.292 5.27 12.087 5.25 12.479 5.25h.026c.05 0 5.098-.017 8.062 1.125a.75.75 0 0 1 .447.515c.224.855.486 2.432.486 5.11 0 2.678-.262 4.255-.484 5.107v.004Z" fill="currentColor"/></svg>
